<svg fill="#000000" xmlns="http://www.w3.org/2000/svg"  viewBox="0 0 512 512" width="64px" height="64px"><path d="M 232 8 A 8 8 0 0 0 224 16 L 224 43.789062 A 134.548 134.548 0 0 0 185.15039 59.890625 L 165.49023 40.240234 A 7.985 7.985 0 0 0 154.17969 40.240234 L 120.24023 74.179688 A 7.985 7.985 0 0 0 120.24023 85.490234 L 139.89062 105.15039 A 135.487 135.487 0 0 0 132.0293 120.01953 L 59.970703 120.0293 A 28.046 28.046 0 0 0 31.970703 148.03906 L 32.019531 424.03906 L 16.019531 424.03906 A 8 8 0 0 0 8.0195312 432.03906 L 8.0292969 476.03906 A 28 28 0 0 0 36.029297 504.03906 L 476.0293 503.96094 A 28 28 0 0 0 504.0293 475.96094 L 504.01953 431.96094 A 7.989 7.989 0 0 0 496.01953 423.96094 L 480.01953 423.96094 L 479.9707 147.96094 A 27.979 27.979 0 0 0 451.9707 119.9707 L 379.94922 119.98047 A 136.5 136.5 0 0 0 372.10938 105.15039 L 391.75977 85.490234 A 7.985 7.985 0 0 0 391.75977 74.179688 L 357.82031 40.240234 A 7.985 7.985 0 0 0 346.50977 40.240234 L 326.84961 59.890625 A 134.548 134.548 0 0 0 288 43.789062 L 288 16 A 8 8 0 0 0 280 8 L 232 8 z M 240 24 L 272 24 L 272 50.259766 A 8 8 0 0 0 278.50977 58.119141 A 118.825 118.825 0 0 1 323.43945 76.730469 A 8.014 8.014 0 0 0 333.59961 75.779297 L 352.16992 57.210938 L 374.78906 79.830078 L 356.2207 98.400391 A 8.014 8.014 0 0 0 355.26953 108.56055 A 118.825 118.825 0 0 1 373.88086 153.49023 A 8 8 0 0 0 381.74023 160 L 408 160 L 408 192 L 381.74023 192 A 8 8 0 0 0 373.88086 198.50977 A 118.825 118.825 0 0 1 355.26953 243.43945 A 8.014 8.014 0 0 0 356.2207 253.59961 L 374.78906 272.16992 L 352.16992 294.78906 L 333.59961 276.2207 A 8.013 8.013 0 0 0 323.43945 275.26953 A 118.825 118.825 0 0 1 278.50977 293.88086 A 8 8 0 0 0 272 301.74023 L 272 328 L 240 328 L 240 301.74023 A 8 8 0 0 0 233.49023 293.88086 A 118.825 118.825 0 0 1 188.56055 275.26953 A 8 8 0 0 0 178.40039 276.2207 L 159.83008 294.78906 L 137.21094 272.16992 L 155.7793 253.59961 A 8.014 8.014 0 0 0 156.73047 243.43945 A 118.825 118.825 0 0 1 138.11914 198.50977 A 8 8 0 0 0 130.25977 192 L 104 192 L 104 160.0293 L 130.23047 160.01953 L 130.23047 160 L 130.25977 160 A 8 8 0 0 0 138.11914 153.49023 A 118.825 118.825 0 0 1 156.73047 108.56055 A 8.014 8.014 0 0 0 155.7793 98.400391 L 137.21094 79.830078 L 159.83008 57.210938 L 178.40039 75.779297 A 8.013 8.013 0 0 0 188.56055 76.730469 A 118.825 118.825 0 0 1 233.49023 58.119141 A 8 8 0 0 0 240 50.259766 L 240 24 z M 256 80 A 96 96 0 1 0 352 176 A 96.115 96.115 0 0 0 256 80 z M 252.67383 96.068359 A 80 80 0 0 1 336 176 A 80.093 80.093 0 0 1 256 256 A 80 80 0 0 1 252.67383 96.068359 z M 287.90625 127.99805 A 8.0021247 8.0021247 0 0 0 281.14062 140.11914 L 302.66992 176 L 281.14062 211.88086 A 8.0021247 8.0021247 0 1 0 294.85938 220.11914 L 318.85938 180.11914 A 8.015 8.015 0 0 0 318.85938 171.88086 L 294.85938 131.88086 A 8.0021247 8.0021247 0 0 0 287.90625 127.99805 z M 224.08984 128 A 8.000066 8.000066 0 0 0 217.14062 131.88477 L 193.14062 171.88477 A 8 8 0 0 0 193.14062 180.11523 L 217.14062 220.11523 A 8 8 0 0 0 224.00781 224 A 8 8 0 0 0 230.85938 211.88281 L 209.32812 176 L 230.85938 140.11523 A 8.000066 8.000066 0 0 0 224.08984 128 z M 263.74609 128.00391 A 8.0003616 8.0003616 0 0 0 256.1543 134.43164 L 240.1543 214.43164 A 8 8 0 0 0 246.43164 223.8457 A 8.11 8.11 0 0 0 248.00977 224.00195 A 8 8 0 0 0 255.8457 217.56836 L 271.8457 137.56836 A 8.0003616 8.0003616 0 0 0 263.74609 128.00391 z M 451.9707 135.9707 A 11.984 11.984 0 0 1 463.9707 147.96094 L 464.01953 423.96094 L 48.019531 424.0293 L 47.970703 148.03906 A 11.936 11.936 0 0 1 51.480469 139.55078 A 11.921 11.921 0 0 1 59.970703 136.0293 L 126 136.01953 C 125.19 138.65953 124.43906 141.31 123.78906 144 L 96 144 C 95.82 144 95.640937 144.0193 95.460938 144.0293 L 63.970703 144.0293 A 8.006 8.006 0 0 0 55.970703 152.0293 L 56.019531 408.0293 A 8 8 0 0 0 64.019531 416.0293 L 448.01953 415.9707 A 8.024 8.024 0 0 0 456.01953 407.9707 L 455.9707 151.9707 A 8 8 0 0 0 447.9707 143.9707 L 388.19922 143.98047 C 387.54922 141.28047 386.80023 138.62047 385.99023 135.98047 L 451.9707 135.9707 z M 424 159.9707 L 439.9707 159.9707 L 440.01953 399.9707 L 72.019531 400.0293 L 71.970703 160.0293 L 88 160.0293 L 88 200 A 8 8 0 0 0 96 208 L 123.78906 208 A 134.548 134.548 0 0 0 139.89062 246.84961 L 120.24023 266.50977 A 7.985 7.985 0 0 0 120.24023 277.82031 L 154.17969 311.75977 A 7.985 7.985 0 0 0 165.49023 311.75977 L 185.15039 292.10938 A 134.548 134.548 0 0 0 224 308.21094 L 224 336 A 8 8 0 0 0 232 344 L 280 344 A 8 8 0 0 0 288 336 L 288 308.21094 A 134.548 134.548 0 0 0 326.84961 292.10938 L 346.50977 311.75977 A 7.985 7.985 0 0 0 357.82031 311.75977 L 391.75977 277.82031 A 7.985 7.985 0 0 0 391.75977 266.50977 L 372.10938 246.84961 A 134.548 134.548 0 0 0 388.21094 208 L 416 208 A 8 8 0 0 0 424 200 L 424 159.9707 z M 160 352 A 8 8 0 0 0 152 360 L 152 384 A 8 8 0 0 0 160 392 L 352 392 A 8 8 0 0 0 360 384 L 360 360 A 8 8 0 0 0 352 352 L 160 352 z M 168 368 L 344 368 L 344 376 L 168 376 L 168 368 z M 472.01953 439.96094 L 488.01953 439.96094 L 488.0293 475.96094 A 11.921 11.921 0 0 1 484.50977 484.44922 A 11.913 11.913 0 0 1 476.0293 487.96094 L 36.029297 488.03906 A 12.01 12.01 0 0 1 24.029297 476.03906 L 24.019531 440.03906 L 209.7793 440.00977 L 216.25977 465.94922 A 8.012 8.012 0 0 0 224.0293 472.00977 L 288.0293 471.99023 A 8 8 0 0 0 295.78906 465.92969 L 302.26953 439.99023 L 472.01953 439.96094 z M 226.26953 440 L 285.7793 440 L 281.7793 456 L 230.26953 456 L 226.26953 440 z"/></svg>