<svg xmlns="http://www.w3.org/2000/svg" viewBox="0 0 64 64"><g data-name="Core, processor"><path d="M54 31a3 3 0 0 0 2.82-2H61a1 1 0 0 0 0-2h-4.18A3 3 0 0 0 54 25h-2v-2h2a3 3 0 0 0 2.82-2H61a1 1 0 0 0 0-2h-4.18A3 3 0 0 0 54 17h-2.35A6 6 0 0 0 47 13.09V11a3 3 0 0 0-2-2.82V4a1 1 0 0 0-2 0v4.18A3 3 0 0 0 41 11v2h-2v-2a3 3 0 0 0-2-2.82V4a1 1 0 0 0-2 0v4.18A3 3 0 0 0 33 11v2h-2v-2a3 3 0 0 0-2-2.82V4a1 1 0 0 0-2 0v4.18A3 3 0 0 0 25 11v2h-2v-2a3 3 0 0 0-2-2.82V4a1 1 0 0 0-2 0v4.18A3 3 0 0 0 17 11v2.09A6 6 0 0 0 12.35 17H10a3 3 0 0 0-2.82 2H3a1 1 0 0 0 0 2h4.18A3 3 0 0 0 10 23h2v2h-2a3 3 0 0 0-2.82 2H3a1 1 0 0 0 0 2h4.18A3 3 0 0 0 10 31h2v2h-2a3 3 0 0 0-2.82 2H3a1 1 0 0 0 0 2h4.18A3 3 0 0 0 10 39h2v2h-2a3 3 0 0 0-2.82 2H3a1 1 0 0 0 0 2h4.18A3 3 0 0 0 10 47h2.35A6 6 0 0 0 17 50.91V53a3 3 0 0 0 2 2.82V60a1 1 0 0 0 2 0v-4.18A3 3 0 0 0 23 53v-2h2v2a3 3 0 0 0 2 2.82V60a1 1 0 0 0 2 0v-4.18A3 3 0 0 0 31 53v-2h2v2a3 3 0 0 0 2 2.82V60a1 1 0 0 0 2 0v-4.18A3 3 0 0 0 39 53v-2h2v2a3 3 0 0 0 2 2.82V60a1 1 0 0 0 2 0v-4.18A3 3 0 0 0 47 53v-2.09A6 6 0 0 0 51.65 47H54a3 3 0 0 0 2.82-2H61a1 1 0 0 0 0-2h-4.18A3 3 0 0 0 54 41h-2v-2h2a3 3 0 0 0 2.82-2H61a1 1 0 0 0 0-2h-4.18A3 3 0 0 0 54 33h-2v-2Zm-2-12h2a1 1 0 0 1 0 2h-2Zm0 8h2a1 1 0 0 1 0 2h-2ZM12 45h-2a1 1 0 0 1 0-2h2Zm0-8h-2a1 1 0 0 1 0-2h2Zm0-8h-2a1 1 0 0 1 0-2h2Zm0-8h-2a1 1 0 0 1 0-2h2Zm31-10a1 1 0 0 1 2 0v2h-2Zm-8 0a1 1 0 0 1 2 0v2h-2Zm-8 0a1 1 0 0 1 2 0v2h-2Zm-8 0a1 1 0 0 1 2 0v2h-2Zm2 42a1 1 0 0 1-2 0v-2h2Zm8 0a1 1 0 0 1-2 0v-2h2Zm8 0a1 1 0 0 1-2 0v-2h2Zm8 0a1 1 0 0 1-2 0v-2h2Zm5-8a4 4 0 0 1-4 4H18a4 4 0 0 1-4-4V19a4 4 0 0 1 4-4h28a4 4 0 0 1 4 4Zm4-2a1 1 0 0 1 0 2h-2v-2Zm0-8a1 1 0 0 1 0 2h-2v-2Z"/><path d="M55 20a1 1 0 0 1-1 1h-2v-2h2a1 1 0 0 1 1 1zm0 8a1 1 0 0 1-1 1h-2v-2h2a1 1 0 0 1 1 1zm0 8a1 1 0 0 1-1 1h-2v-2h2a1 1 0 0 1 1 1zm0 8a1 1 0 0 1-1 1h-2v-2h2a1 1 0 0 1 1 1zm-10 7v2a1 1 0 0 1-2 0v-2zm-8 0v2a1 1 0 0 1-2 0v-2zm-8 0v2a1 1 0 0 1-2 0v-2zm-8 0v2a1 1 0 0 1-2 0v-2zm-9-8v2h-2a1 1 0 0 1 0-2zm0-8v2h-2a1 1 0 0 1 0-2zm0-8v2h-2a1 1 0 0 1 0-2zm0-8v2h-2a1 1 0 0 1 0-2zm9-8v2h-2v-2a1 1 0 0 1 2 0zm8 0v2h-2v-2a1 1 0 0 1 2 0zm8 0v2h-2v-2a1 1 0 0 1 2 0zm8 0v2h-2v-2a1 1 0 0 1 2 0z" opacity=".5"/><rect width="24" height="24" x="20" y="20" opacity=".5" rx="2" ry="2"/></g></svg>