<svg xmlns="http://www.w3.org/2000/svg" viewBox="0 0 64 64"><g data-name="Web development"><path d="M44 63H20a1 1 0 0 1 0-2h24a1 1 0 0 1 0 2zm9-60H11a1 1 0 0 0-1 1v7h44V4a1 1 0 0 0-1-1zM31 8H14a1 1 0 0 1 0-2h17a1 1 0 0 1 0 2zm6 1a2 2 0 1 1 2-2 2 2 0 0 1-2 2zm6 0a2 2 0 1 1 2-2 2 2 0 0 1-2 2zm6 0a2 2 0 1 1 2-2 2 2 0 0 1-2 2zm-39 4v20a1 1 0 0 0 1 1h42a1 1 0 0 0 1-1V13zm5.83 13.45a1 1 0 0 1-.28 1.38.94.94 0 0 1-.55.17 1 1 0 0 1-.83-.45l-2-3a1 1 0 0 1 0-1.1l2-3a1 1 0 0 1 1.66 1.1L14.2 24zM21 20.38l-2 7.74a1 1 0 0 1-1 .75 1.07 1.07 0 0 1-.25 0 1 1 0 0 1-.75-1.25l2-7.74a1 1 0 0 1 1.94.5zm4.86 4.17-2 3A1 1 0 0 1 23 28a.94.94 0 0 1-.55-.17 1 1 0 0 1-.28-1.38L23.8 24l-1.63-2.45a1 1 0 1 1 1.66-1.1l2 3a1 1 0 0 1 0 1.1zM52 29a3 3 0 0 1-3 3H32a3 3 0 0 1-3-3V19a3 3 0 0 1 3-3h17a3 3 0 0 1 3 3z"/><path d="M59 12v27H5V12a4.94 4.94 0 0 1 3-4.56V33a3 3 0 0 0 3 3h42a3 3 0 0 0 3-3V7.44A4.94 4.94 0 0 1 59 12ZM40.89 61H23.11l3.43-10h10.92l3.43 10z"/><path d="M5 41v3a5 5 0 0 0 5 5h44a5 5 0 0 0 5-5v-3zm28 5h-2a1 1 0 0 1 0-2h2a1 1 0 0 1 0 2zm5.13-16h-5.72L35 27.44a1 1 0 0 1 .81-.3 1 1 0 0 1 .73.45zm10.64 0h-8.24l-1.28-1.93 3-3.64a1 1 0 0 1 .76-.36.85.85 0 0 1 .75.34z"/><path d="M49 18H32a1 1 0 0 0-1 1v9.59L33.56 26a3 3 0 0 1 4.51.33l2.67-3.2A3 3 0 0 1 43 22.07a3 3 0 0 1 2.24 1l4.76 5.3V19a1 1 0 0 0-1-1Zm-13 6a2 2 0 1 1 2-2 2 2 0 0 1-2 2Z"/></g></svg>